<?xml version="1.0" standalone="yes"?>
<svg xmlns="http://www.w3.org/2000/svg" width="425" height="440">
<path style="fill:#ffffff; stroke:none;" d="M0 0L0 440L425 440L425 0L0 0z"/>
<path style="fill:#000000; stroke:none;" d="M231 6C223.688 14.6108 214.251 21.3658 209.529 32C206.906 37.9084 205.653 44.7379 204.13 51C203.344 54.228 203.02 58.0338 200.567 60.5046C193.798 67.3227 180.946 68.485 172 70.0841C159.564 72.3072 147.844 74.9597 135 73.9066C122.883 72.9132 108.222 67.5794 97 63C100.596 60.6501 106.246 58.9812 108.681 55.3164C113.964 47.3668 101.106 44.2299 95.7145 44.169C79.7402 43.9885 65.4795 46.0236 50 49.6636C44.5721 50.9399 34.1156 49.9826 32 56L28 56L28 52L20 52C19.676 57.6305 19.5954 61.2648 26 62C27.8387 72.8525 33.0284 82.6438 36.4938 93C38.0105 97.5327 40.1844 102.161 40 107C45.0925 113.587 41.664 118.749 35.9606 123.349C30.1625 128.025 23.9863 132.298 18 136.731C15.1462 138.844 11.1423 141.055 9.32253 144.209C5.61827 150.629 13.1957 162.253 16 168C19.0175 167.548 23.7681 164.977 26.6605 166.238C29.1092 167.305 30.5925 170.899 32 173C29.1766 173.818 25.0788 174.83 24.3727 178.212C23.6184 181.825 26.8081 185.267 28.5656 188.09C33.5006 196.016 39.4985 205.576 48 210C45.8892 213.613 43.7271 216.057 40 218C41.318 223.748 49.5035 232.35 55.0934 234.41C58.2237 235.564 61.987 234.76 64.7106 232.999C66.7521 231.68 68.5613 228.953 71.2886 230.045C76.8304 232.263 81.8665 238.86 86.5139 242.586C94.6948 249.145 103.934 254.495 113 259.699C116.998 261.994 120.577 264.6 125 266L125 268C119.691 268.986 114.266 269.098 109 270.336C86.665 275.587 65.277 285.947 47 299.769C39.5202 305.425 27.6691 313.595 25 323C38.8322 318.321 51.6735 310.892 66 307.665C81.901 304.083 97.5001 299.888 114 300.005C117.722 300.031 127.682 299.635 130.249 302.703C132.025 304.825 128.942 307.464 127.819 309.09C124.091 314.483 120.796 320.327 117.438 325.961C107.143 343.231 95.2877 359.716 85.1489 377C81.7663 382.766 78.8658 389.232 76.034 395.285C74.6433 398.258 74.197 401.347 71.7716 403.772C64.9939 410.548 51.6577 407.361 43.0147 410.104C39.0516 411.362 33.5629 415.256 33.7971 420.021C33.9436 423.003 36.3122 424.424 39.0046 424.852C46.8314 426.095 55.0538 425.254 63 426.427C67.4595 427.086 71.4892 427.6 76 427.032C78.4415 426.724 81.2742 425.241 83.696 425.438C86.3398 425.652 87.5076 428.51 89.4591 429.912C93.2234 432.616 100.008 432.929 103.443 429.566C108.737 424.384 106.236 416.486 108 410C110.673 410.851 113.225 411.59 116 412C131.024 384.607 152.916 359.391 175.091 337.482C180.379 332.258 184.528 326.007 189.87 320.728C191.6 319.018 193.38 316.554 195.754 315.708C198.888 314.589 203.117 317.543 206 318.56C211.623 320.545 218.078 321.264 224 321.83C231.07 322.506 238.987 322.502 246 321.41C251.18 320.603 258.816 318.333 263.91 320.299C270.722 322.927 275.465 333.727 279.667 339.285C288.145 350.503 295.609 362.307 303.746 373.728C309.086 381.223 316.416 389.289 319.658 398.011C321.169 402.074 318.307 403.994 314.998 405.688C309.455 408.525 292.86 416.537 298.218 425.606C300.798 429.97 307.928 429.299 312 428.1C322.546 424.993 339.644 420.792 346 411C351.467 413.631 364.342 414.216 363.797 404.961C363.543 400.647 359.803 396.795 358 393C360.181 390.833 358.782 388.574 357.419 385.999C354.73 380.919 351.499 376.176 348.98 371C344.512 361.818 340.903 352.252 336.617 343C330.516 329.832 323.496 316.818 319 303C331.694 298.317 342.909 290.759 353.829 282.857C358.107 279.762 362.491 272.556 368 271.954C371.343 271.589 375.046 274.239 378 275.512C384.617 278.365 391.403 280.847 398 283.725C401.956 285.45 404.564 287.475 409 287C408.517 282.351 410.101 278.545 410.404 274C411.253 261.244 411.699 249.117 416 237C409.368 234.442 402.721 231.951 396 229.645C393.287 228.714 389.373 227.589 387.994 224.786C386.205 221.15 390.258 216.404 392.356 213.754C398.863 205.533 407.503 196.524 418 194C418.186 185.009 423.44 174.608 419.67 166.043C417.047 160.086 409.427 158.115 404 155.49C389.708 148.576 375.023 140.124 360 135C369.607 131.374 379.984 131.126 389 126C388.021 116.82 390.036 106.505 390.862 97.2855C391.142 94.1608 393.332 90.1709 391.303 87.3025C389.742 85.0951 386.396 84.2278 384 83.2986C377.159 80.645 369.22 79.2198 362 77.9167C341.101 74.1447 320.105 70.3704 299 67.8449C292.031 67.011 284.975 65.077 278 65C278 54.652 280.856 43.1753 278.295 33.0008C276.592 26.2393 271.824 24.9705 267.545 20.3665C264.781 17.3929 263.426 13.7262 260.251 10.9352C251.297 3.06369 241.714 5.71625 231 6z"/>
<path style="fill:#ff0000; stroke:none;" d="M268 26C267.723 39.3247 260.792 49.6988 257 62C262.329 64.2058 263.318 67.9263 265.383 72.9807C266.139 74.8303 267.236 78.0395 269.881 77.2485C274.871 75.7564 273.997 65.8727 274 62C274.009 49.6364 281.086 34.3121 268 26z"/>
<path style="fill:#00ff00; stroke:none;" d="M36 55C42.7541 71.6736 59.8892 65.8428 73 63.463C78.632 62.4406 84.5717 62.6331 90 60.6875C96.0461 58.5205 103.995 56.7715 106 50C99.1221 47.4933 92.2281 48 85 48C68.2015 48 52.2816 50.987 36 55z"/>
<path style="fill:#ffa953; stroke:none;" d="M202 76C205.252 75.851 208.895 75.6478 211.427 73.2971C216.089 68.9709 214.261 62.2327 209 60C216.768 56.6918 220.22 66.9462 216.707 72.8951C211.57 81.5925 199.015 78.4755 194 88C197.645 88 201.415 88.2573 205 87.4815C209.277 86.5558 212.536 84.4934 217 85C213.189 88.8267 207.272 89.1815 203.603 92.9661C197.487 99.2755 204.077 111.798 210.986 114.056C221.223 117.401 232.324 112.541 239.999 105.96C244.058 102.479 250.161 94.0408 244 90L244 87C249.786 84.8002 255.51 80.7704 254 74L247 76C245.636 70.2858 246.043 64.3359 242.058 59.5911C234.215 50.2534 216.87 48.8596 208.299 58.1844C203.932 62.9366 203.175 69.9417 202 76z"/>
<path style="fill:#ffffff; stroke:none;" d="M28 58C28.9737 69.1524 35.5568 79.1837 38 90L42 90C43.906 83.0843 48.0112 77.1955 49 70C41.8549 66.6593 35.8573 58.593 28 58z"/>
<path style="fill:#000000; stroke:none;" d="M226 65C229.785 63.5315 233.47 62.0091 237 60C232.388 57.0414 227.442 60.1448 226 65z"/>
<path style="fill:#ffffff; stroke:none;" d="M47 89C60.9732 84.9669 72.8028 76.3154 88 76C87.9978 73.2022 88.6587 69.1357 86.3966 67.0092C84.1478 64.8954 80.7897 65.1671 78 65.6188C71.282 66.7066 59.7041 67.4541 54.2639 71.7276C49.6474 75.3541 48.1386 83.5534 47 89z"/>
<path style="fill:#00ff00; stroke:none;" d="M92 65C92.0628 68.0247 91.883 71.9564 93.9383 74.4398C95.7728 76.6566 99.4003 77.3022 102 78.1667C108.262 80.2487 114.601 81.3256 120.91 83.0895C136.559 87.4642 155.77 88.2975 172 87.1443C177.347 86.7644 184.691 87.902 189.486 84.9908C197.1 80.3684 197.174 74.6687 199 67C180.091 70.2141 162.631 77.6779 143 77.4205C125.234 77.1876 108.834 69.6398 92 65z"/>
<path style="fill:#000000; stroke:none;" d="M207 65L206 69L209 69C208.489 67.0479 208.267 66.543 207 65z"/>
<path style="fill:#00ff00; stroke:none;" d="M254 65L252 70C256.118 71.6348 258.098 73.627 259 78L262 78C261.419 72.1672 259.864 67.059 254 65M278 67C277.349 70.7707 276.044 73.7721 274 77L276 80C286.388 80.3731 297.696 83.1032 308 84.9159C316.925 86.4861 326.258 87.0368 335 89.4252C343.887 91.8532 352.991 97.5204 362 98.7832C369.339 99.8119 383.594 94.3889 386 87C374.294 85.4159 362.725 81.1365 351.015 79.0255C336.079 76.3328 320.929 75.4774 306 72.74C296.943 71.0794 287.055 67.2674 278 67z"/>
<path style="fill:#000000; stroke:none;" d="M224 70L225 73C227.626 72.1613 228.161 71.6265 229 69C227.122 69.1759 225.801 69.4382 224 70z"/>
<path style="fill:#ffffff; stroke:none;" d="M39 92C40.4386 96.7672 42.4694 101.29 44.0656 106C44.9048 108.477 45.4587 111.578 47.51 113.397C50.7985 116.312 56.1495 114.371 60 114.089C69.3655 113.402 78.6313 111.873 88 111.224C91.47 110.983 96.6309 109.332 99.8526 111.067C105.989 114.372 104.277 127.413 108 133L110 133C110.545 131.365 110.365 131.545 112 131C115.205 143.384 119.118 155.141 126 166C131.632 163.319 135.438 157.694 139.449 153.025C143.768 147.996 148.822 143.701 153.486 139.014C156.245 136.241 158.704 132.841 162.04 130.724C165.747 128.371 170.773 128.04 175 127.2C185.948 125.024 196.854 124.565 208 125C207.922 118.378 204.726 117.025 201.328 111.907C199.096 108.544 198.03 104.847 197 101C170.346 104.371 143.864 109.701 116.996 106.289C109.529 105.34 97.0477 106.045 91.6034 99.581C87.9705 95.2675 89.4129 84.2512 90 79C78.5604 79 68.6178 81.3828 58 85.6983C50.7511 88.6446 47.2506 92.968 39 92M93 79C93.0007 84.9866 93.429 91.0271 93 97C100.504 101.089 107.719 101.903 116 103.285C143.711 107.913 170.78 102.128 198 97C195.277 89.0226 184.824 89.6797 178 90.5756C160.698 92.8473 141.014 90.9359 124 87.7392C115.602 86.1613 106.48 81.7426 98 82C96.535 79.8779 95.5431 79.5258 93 79M250 95C267.077 97.9367 284.089 101.146 301 105.373C308.603 107.274 318.268 111.974 326 112.071C337.306 112.214 347.365 103.918 358 102C354 96.2612 339.693 93.911 333 92.8665C325.289 91.6631 317.683 89.3159 310 88.2083C302.019 87.0579 293.972 86.9237 286 85.5864C278.098 84.2607 269.054 80.8725 261.015 81.3171C254.107 81.6991 250.072 88.9751 250 95z"/>
<path style="fill:#000000; stroke:none;" d="M232 94C233.517 94.9573 234.339 95.3872 236 96C235.749 94.6169 235.641 93.2586 234.992 91.9784C231.198 84.5061 224.095 90.8341 218.184 91.9553C215.259 92.5102 210.183 91.0193 208.603 94.3187C205.65 100.488 213.355 106.593 219 106.102C225.441 105.542 229.185 99.0497 232 94z"/>
<path style="fill:#ff0000; stroke:none;" d="M211 96C213.983 107.254 223.297 101.76 227 94C221.382 95.2879 216.819 96.6146 211 96z"/>
<path style="fill:#00ff00; stroke:none;" d="M331 114C333.819 116.94 337.842 120.529 342 121.255C349.906 122.634 361.435 117.089 369 114.908C373.269 113.678 382.225 112.047 384.976 108.347C387.393 105.097 387.488 97.9658 388 94C368.093 97.4257 351.395 112.332 331 114z"/>
<path style="fill:#ffffff; stroke:none;" d="M315 139C316.465 141.122 317.457 141.474 320 142C320.109 136.705 320.785 131.306 321.374 126.039C321.718 122.966 322.64 118.983 320.969 116.144C318.438 111.841 310.445 111.096 306 110.2C292.578 107.494 279.47 103.507 266 101.077C262.094 100.372 255.155 96.5131 251.39 97.7322C244.419 99.9892 246.209 113.391 250.653 117.062C259.279 124.188 274.809 113.731 283.406 120.585C291.664 127.168 303.778 138.684 315 139z"/>
<path style="fill:#ff0000; stroke:none;" d="M226 118L228 124C234.197 123.089 241.024 121.816 247 120C245.368 116.341 243.847 112.935 243 109C237.024 111.298 231.975 115.512 226 118z"/>
<path style="fill:#ffffff; stroke:none;" d="M91.3333 112.667C91.2777 112.722 91.2223 113.778 91.6667 113.333C91.7222 113.278 91.7778 112.222 91.3333 112.667M49 118L52 126C58.2278 124.283 59.9954 124.474 62 131C66.5222 129.494 64.3885 126.726 66.7724 123.495C68.9221 120.583 73.9423 118.87 77 117C78.296 120.553 79.2928 123.672 83 125C82.5662 118.617 83.389 115.708 90 114C86.2715 112.476 81.9632 113.453 78 113.793C68.6257 114.599 57.9985 115.315 49 118z"/>
<path style="fill:#bfbfbf; stroke:none;" d="M98 114C96.948 119.17 96.4281 121.367 91 123L90 118C85.8816 119.656 87.3518 121.963 85.0903 125.073C83.6168 127.099 81.1958 128.031 79 129L76 122C74.1814 122.558 72.1929 122.967 71.0239 124.653C68.6233 128.114 71.204 137.061 75.1443 138.597C77.5078 139.519 79.9565 138.042 82 136.992C86.809 134.521 91.3017 131.559 95.9954 128.897C97.8577 127.84 100.495 126.97 101.223 124.725C102.204 121.699 100.257 117.153 100 114L98 114z"/>
<path style="fill:#ffffff; stroke:none;" d="M346 126C349.094 127.761 352.409 130.62 356.004 131.153C359.025 131.601 362.092 130.067 365 129.453C371.493 128.082 377.664 127.03 384 125C384.003 121.214 384.121 117.694 385 114C376.688 114.68 369.754 118.511 362 121.015C356.629 122.749 350.869 122.94 346 126M93 116L93 119C93.6961 117.446 93.6961 117.554 93 116z"/>
<path style="fill:#00ff00; stroke:none;" d="M326 116C325.812 120.382 323.973 125.721 325.603 129.961C327.376 134.57 333.231 137.424 337 140.221C348.557 148.796 361.638 154.547 374 161.731C380.025 165.233 387.984 173.972 395 174.536C401.202 175.035 408.435 169.634 413 166C409.473 161.701 404.885 159.826 400 157.399C392.076 153.462 384.021 149.844 376 146.114C357.979 137.735 342.98 125.881 326 116z"/>
<path style="fill:#ff0000; stroke:none;" d="M212 119C212.008 121.122 211.5 124.477 213.028 126.218C218.062 131.958 221.955 122.736 222 119L212 119z"/>
<path style="fill:#ffffff; stroke:none;" d="M16 142C23.1906 141.204 24.6331 148.454 32 146C31.5996 143.624 30.1959 140.498 30.8125 138.108C31.6974 134.678 38.4244 131.616 41.7261 132.648C46.0821 134.01 45.4618 137.923 51 137C49.65 131.167 47.433 125.463 45 120C39.0064 122.636 34.2072 127.221 29 131.127C24.4639 134.529 19.4803 137.49 16 142z"/>
<path style="fill:#ff0000; stroke:none;" d="M224 138C226.342 137.943 228.541 137.922 230.716 136.926C233.284 135.749 236.555 132.335 239.664 133.569C243.486 135.088 238.848 141.493 243.153 143.958C246.364 145.796 250.792 143.779 254 142.859C264.93 139.726 271.516 134.481 274 123C262.122 123.725 250.747 122.225 239 124.888C235.607 125.658 230.285 126.136 227.738 128.728C225.588 130.917 225.038 135.175 224 138z"/>
<path style="fill:#bfbfbf; stroke:none;" d="M55 140C47.5449 142.734 44.1541 142.676 41 135C38.8633 136.035 35.6637 137.048 34.642 139.415C33.6072 141.813 34.8814 144.453 33.3071 146.775C31.3372 149.682 27.1044 150.794 24 152C23.1324 149.645 22.4264 147.469 22 145C19.1833 145.281 13.9054 145.689 12.3673 148.56C10.6625 151.742 15.4407 162.781 19.1443 163.241C23.5154 163.784 29.0048 160.289 33 158.823C46.2892 153.944 58.9534 147.432 72 142C71.1553 139.305 70.3431 136.806 70 134L60 135C59.7914 132.268 56.8788 125.619 54.3133 131.167C53.1011 133.789 54.3572 137.382 55 140z"/>
<path style="fill:#ff0000; stroke:none;" d="M284 128C283.764 133.039 287.753 137.861 288.883 143C290.239 149.159 288.986 158.119 291.742 163.697C293.083 166.409 296.389 166.569 299.001 167.095C304.767 168.256 308.974 170.977 315 170C316.754 178.473 319.635 186.835 322.466 195C323.136 196.932 323.743 201.657 326.271 202.079C329.487 202.615 332.004 197.246 333.336 195.091C334.586 193.069 335.432 191.287 336 189C339.261 192.437 339.43 196.897 341.593 200.999C343.758 205.103 347.069 207.726 351 210C348.97 201.145 346.826 192.066 346.093 183C345.615 177.074 346.224 168.495 342.986 163.209C340.433 159.041 333.926 156.469 330 153.706C322.052 148.112 313.34 144.665 305 139.802C298.15 135.809 291.686 130.225 284 128z"/>
<path style="fill:#bfbfbf; stroke:none;" d="M77 146L80 146C79.8202 148.647 80.1807 150.468 81 153L84 153C89.6399 146.172 98.1615 142.46 105 137L102 130C94.1476 131.417 79.9059 138.198 77 146z"/>
<path style="fill:#ff0000; stroke:none;" d="M173 131C175.826 136.982 180.283 142.444 181.776 149C182.428 151.861 183.25 155.17 183.177 158.116C183.106 161.034 181.674 163.781 182.525 166.715C183.404 169.748 185.678 172.534 186.988 175.424C189.561 181.099 191.648 187.174 193.869 193C196.148 198.979 197.224 210.983 202.314 215.106C206.233 218.281 213.292 217 218 217C217.891 214.18 219.225 209.986 217.88 207.455C215.653 203.262 209.981 200.604 208.502 195.757C207.828 193.548 209.222 190.973 211.789 191.593C214.008 192.129 215.701 194.291 218 195C218.011 191.075 219.894 185.776 219.072 182.093C217.656 175.751 209.424 173.057 204 174C203.181 163.107 213.69 170.711 220 171C220.019 164.187 221.981 157.813 222 151C216.325 150.231 212.746 147.934 208.016 144.864C206.504 143.883 204.138 142.955 203.782 140.931C202.943 136.155 215.698 138.948 218 140C221.408 137.163 221.954 134.184 223 130C206.955 130.689 188.814 127.443 173 131M278 132L274 133C272.17 141.913 269.577 152.783 275 161C276.829 154.811 275.484 148.356 276.105 142C276.446 138.515 278.574 135.424 278 132M164 133C164.598 134.195 164.466 133.977 166 135C157.997 140.614 150.153 147.404 143.326 154.421C138.781 159.091 135.903 164.872 130 168C131.282 173.45 135.111 177.327 138 182C145.995 177.952 155.31 160.569 164 173C168.789 171.514 177.261 168.7 179.396 163.699C180.532 161.038 179.693 157.722 179.246 155C177.856 146.521 173.562 134.48 164 133z"/>
<path style="fill:#ffffff; stroke:none;" d="M325 133C324.108 136.288 322.735 141.413 324.407 144.61C325.544 146.786 328.308 148.256 330 150C334.98 151.083 344.11 156.544 346.569 161.129C348.298 164.352 347.371 168.782 349.767 171.62C351.552 173.734 354.462 174.343 356.715 175.799C361.454 178.864 367.95 185.235 374.039 184.732C379.547 184.277 384.97 180.094 390 178C387.94 171.305 378.566 168.219 373 164.604C366.344 160.281 358.733 158.09 352 153.935C341.935 147.724 334.056 140.296 325 133z"/>
<path style="fill:#ff0000; stroke:none;" d="M280 136C280 144.964 275.647 164.596 288 165C287.995 157.648 288.211 138.697 280 136z"/>
<path style="fill:#bfbfbf; stroke:none;" d="M82 156C85.5752 169.072 93.3278 179.251 100.985 190.086C113.781 208.19 129.18 226.491 148.086 238.655C153.672 242.25 159.64 245.641 166 247.586C171.252 249.193 177.722 249.465 182 253L190 253L191 229C183.434 226.82 175.071 222.528 168.804 217.735C164.396 214.364 161.001 209.466 156 207C156.296 215.384 149.852 233.79 138.186 225.992C135.944 224.493 134.514 222.165 133 220C136.083 218.95 139.237 217.867 141.961 216.031C144.008 214.651 145.634 212.883 147.191 210.985C148.227 209.723 149.33 208.412 150.156 207C151.742 204.289 153.124 199.015 147.977 200.561C142.927 202.077 138.554 206.536 133.001 206.482C128.756 206.441 125.856 204.138 127 200C135.361 205.944 144.739 197.795 151.615 192.611C154.594 190.365 157.726 188.452 159.427 184.985C161.355 181.057 160.761 177.113 160 173C156.96 173.065 153.907 173.085 151.285 174.858C149.298 176.202 147.691 178.197 146.145 180.004C139.867 187.344 126.803 204.092 118 190L119 189C123.22 190.338 135.585 193.229 135.168 184.96C134.916 179.97 127.875 173.108 125.13 169C118.476 159.044 114.039 150.622 111 139C99.5536 141.207 92.8911 153.286 82 156z"/>
<path style="fill:#ff0000; stroke:none;" d="M269 139C262.122 143.555 240.381 156.245 238 141C226.051 144.605 222.7 160.996 222 172C232.594 171.134 239.319 163.293 249 161C248.111 165.391 246.353 167.748 242 169C240.064 174.573 236.726 178.106 231 179.942C228.748 180.664 225.496 180.514 223.6 182.024C220.524 184.472 220.167 192.355 220 196C224.285 196.169 227.88 196.642 231.83 194.556C234.356 193.223 238.494 188.934 241.623 190.298C245.354 191.924 239.454 196.723 238.347 198.114C233.235 204.537 229.477 207.438 221 207L220 217C230.527 212.617 240.739 207.089 251 202.108C255.197 200.071 262.073 198.252 265.027 194.502C270.804 187.168 273.622 174.891 276 166C265.515 160.244 271.173 148.048 269 139M212 144C218.35 149.073 225.795 147.877 230 141C224.059 142.119 218.04 143.737 212 144z"/>
<path style="fill:#bfbfbf; stroke:none;" d="M31 162C31.5706 165.208 32.7722 167.989 34 171C49.2983 167.842 62.6371 158.639 78 155L74 145C58.9816 148.476 45.5445 157.08 31 162z"/>
<path style="fill:#000000; stroke:none;" d="M102 157C104.086 163.797 108.789 163 115 163L114 159C109.445 159.634 106.273 158.419 102 157M309 169C313.738 166.474 316.639 162.671 322 161C317.166 154.64 310.581 164.514 309 169z"/>
<path style="fill:#bfbfbf; stroke:none;" d="M28 178C28.5577 186.324 36.2214 194.664 41.7315 200.621C43.5229 202.558 46.5388 205.797 49.2315 206.356C52.2166 206.977 62.4326 199.581 63.1381 196.726C63.8936 193.669 61.6911 190.267 62.233 187C62.8426 183.325 65.7867 179.109 69.9969 180.157C74.6432 181.313 77.7461 186.404 80.3472 190C84.6793 195.988 89.7022 201.526 94.4745 207.166C96.6492 209.736 100.428 212.759 101.353 216.09C102.41 219.898 96.6207 229.28 92.3881 229.4C89.1935 229.49 86.0335 224.534 84.1698 222.424C78.4348 215.933 74.0911 206.832 66 203C66.7106 205.196 68.7203 206.989 69.1574 209.208C69.8414 212.681 69.0368 218.627 68 222C72.1285 224.93 74.7677 228.965 78.5532 232.12C90.9127 242.422 104.169 251.324 117.83 259.846C136.746 271.646 157.102 282.997 180 283C181.278 274.349 185.744 266.434 188 258C181.593 255.547 174.435 255.215 168.17 252.671C146.65 243.936 125.076 225.801 110.566 207.86C101.553 196.716 94.4471 185.333 87.1443 173C84.9727 169.333 82.2527 160.519 77.7863 159.333C72.6107 157.958 66.4976 162.225 62 164.218C51.1024 169.049 39.6298 175.244 28 178z"/>
<path style="fill:#000000; stroke:none;" d="M98 159C96.0956 163.937 94.1947 168.836 93 174L97 174C98.0432 168.959 99.7638 164.17 100 159L98 159M316 166L316 168C319.376 167.77 321.92 167.46 325 169C325.986 167.522 326 167.797 326 166C322.49 165.035 319.577 165.55 316 166M110 167L110 172C112.274 170.598 112.987 169.485 114 167L110 167z"/>
<path style="fill:#00ff00; stroke:none;" d="M414 167C405.288 178.36 387.408 180.229 376.104 188.904C368.742 194.555 363.471 207.575 360 216L370 219C374.275 203.496 390.16 191.129 404 184.295C407.981 182.329 411.644 179.987 416 179C416.536 174.753 416.993 171.22 416 167L414 167z"/>
<path style="fill:#000000; stroke:none;" d="M117.104 169.89C112.563 171.216 114.055 179.789 118.739 178.267C122.996 176.884 122.047 168.448 117.104 169.89z"/>
<path style="fill:#ffffff; stroke:none;" d="M278 169C276.375 176.911 272.939 184.222 271 192C275.954 190.573 280.706 187.131 286 187.198C292.382 187.278 299.346 191.596 305 194.219C309.496 196.305 314.292 197.495 319 199C318.49 193.158 316.931 183.947 313.387 179.189C309.877 174.478 299.77 171.213 294.039 170.826C291.204 170.634 289.542 172.861 286.91 173.212C283.621 173.651 280.56 170.663 278 169M154 196C160.676 209.84 178.47 223.409 194 225C197.195 215.984 194.997 210.988 192.576 202C189.564 190.814 185.39 180.245 180 170C175.763 171.443 169.773 173.154 166.742 176.637C164.569 179.134 164.646 183.072 163.161 185.985C161.061 190.108 157.44 193.034 154 196z"/>
<path style="fill:#ff0000; stroke:none;" d="M218 175L218 177C226.424 177 233.593 178.418 238 170C230.833 172.225 225.732 174.995 218 175z"/>
<path style="fill:#000000; stroke:none;" d="M319 171C321.965 173.958 324.86 174.785 329 175C326.161 171.559 323.436 170.302 319 171M101 179C102.314 178.232 102.232 178.314 103 177C104.465 181.748 104.432 184.566 110 185C110.459 180.183 109.456 176.472 104 177L105 173L104 172C100.85 173.948 100.391 175.369 101 179z"/>
<path style="fill:#ffffff; stroke:none;" d="M350 177C350.121 186.304 351.6 196.082 353.97 205.09C354.941 208.78 355.81 212.776 359 215C358.332 204.408 367.79 196.48 371 187C364.326 183.336 357.695 177.964 350 177z"/>
<path style="fill:#7fffff; stroke:none;" d="M90 226C93.7476 224.925 98.2713 221.726 97.8819 217.17C97.6047 213.926 94.0795 210.425 92.0802 208.093C87.3364 202.557 83.3065 196.628 78.689 190.996C76.8168 188.713 74.5899 185.364 71.8341 184.086C68.3335 182.463 65.6689 185.796 65.2724 189.005C64.8197 192.667 66.9191 196.004 69.0039 198.816C71.1587 201.721 73.768 204.316 76.1443 207.04C80.6493 212.204 88.0244 219.502 90 226z"/>
<path style="fill:#ffffff; stroke:none;" d="M393 197C383.816 197.875 374.752 212.953 372 221C374.76 221.633 378.881 223.497 381.545 221.93C385.7 219.485 388.303 212.7 391.311 209.001C398.757 199.843 413.885 195.696 414 183C407.23 184.549 395.312 189.975 393 197z"/>
<path style="fill:#bfbfbf; stroke:none;" d="M252 206C242.699 208.679 233.929 214.198 225 218C227.124 223.723 230.601 228.454 234.428 233.165C235.957 235.047 237.572 237.581 240.09 238.187C243.581 239.026 247.896 235.996 251 234.734C259.043 231.463 267.428 228.146 275 223.905C277.753 222.363 281.39 221.208 283.397 218.657C285.323 216.206 284.705 213.294 284.938 210.424C285.511 203.368 287.127 196.082 286 189C281.492 190.65 277.358 193.227 273.005 195.273C271.032 196.201 268.527 197.08 267.643 199.275C265.319 205.043 270.521 212.034 266.106 217.722C262.69 222.125 256.291 221.698 253.608 216.894C251.744 213.557 252.003 209.686 252 206M290 192C289.424 199.292 286.206 208.593 288.318 215.79C289.529 219.916 294.548 220.723 298 222.115C304.613 224.781 308.737 229.434 316 226C312.361 224.427 308.47 224.364 305.109 221.891C300.754 218.688 300.374 212.807 305.251 209.762C310.592 206.428 318.01 207 324 207C317.204 198.399 300.3 194.81 290 192z"/>
<path style="fill:#ff0000; stroke:none;" d="M234 196C227.659 199.556 221.922 199.902 215 198C217.17 208.434 235.338 205.926 234 196z"/>
<path style="fill:#ffa953; stroke:none;" d="M335 199C331.866 202.962 329.113 209.008 323.999 210.591C319.186 212.081 310.343 209.31 307.086 214.467C304.819 218.057 310.66 219.667 313.001 220.181C321.258 221.992 327.202 217.871 335 218C332.714 225.364 329.102 230.95 330 239C336.804 235.288 335.291 225.68 340 220C340.663 228.005 338.001 235.858 338 244C345.269 239.768 340.643 229.044 348 225C346.935 231.002 346.542 236.941 347 243C351.27 238.443 349.218 232.069 353 227C354.395 229.038 355.349 230.627 356 233C359.753 227.506 357.848 219.138 352 216C353.355 218.684 354.436 221.047 355 224C352.72 222.637 351.703 220.464 349.586 218.933C343.576 214.586 335.043 212.041 328 214C332.363 206.34 339.561 211.159 346 213C343.252 208.194 338.817 203.059 335 199z"/>
<path style="fill:#7fffff; stroke:none;" d="M258 217C267.187 216.299 264.612 207.692 263 201C253.564 203.296 256.767 209.536 258 217z"/>
<path style="fill:#ffa953; stroke:none;" d="M47 222C52.8504 216.982 60.4841 210.403 63 203C56.2636 204.902 46.8326 214.814 47 222z"/>
<path style="fill:#000000; stroke:none;" d="M292 205C291.506 208.915 290.896 212.157 292 216C293.446 212.584 293.839 208.69 294 205L292 205M299 205C296.491 208.802 295.735 211.584 297 216C298.804 212.681 300.293 208.646 299 205M328 214C334.884 212.642 342.837 214.99 348.776 218.933C351.271 220.589 352.117 222.957 355 224C354.103 215.952 346.925 213.08 340 210.468C335.251 208.676 329.841 208.628 328 214z"/>
<path style="fill:#ffa953; stroke:none;" d="M51 222L52 226L54 226C57.8493 220.535 64.1519 216.584 66 210C59.4221 211.597 55.8991 217.727 51 222z"/>
<path style="fill:#ff0000; stroke:none;" d="M151 213C147.462 216.264 143.98 219.277 140 222C145.946 225.364 153.153 219.558 151 213z"/>
<path style="fill:#ffffff; stroke:none;" d="M346 213C347.75 214.255 348.857 214.614 351 215C349.212 213.579 348.294 213.303 346 213M351 215L352 216L351 215z"/>
<path style="fill:#004040; stroke:none;" d="M62.3333 219.667C62.2777 219.722 62.2223 220.778 62.6667 220.333C62.7222 220.278 62.7778 219.222 62.3333 219.667z"/>
<path style="fill:#ffa953; stroke:none;" d="M64 219L65 220L64 219z"/>
<path style="fill:#bfbfbf; stroke:none;" d="M361 219C361.854 223.67 362.353 229.551 359.825 233.867C358.351 236.383 355.656 236.886 353.738 238.839C351.948 240.66 351.623 243.632 351 246C368.932 252.605 385.996 265.77 405 269L408 238L405 237C402.821 242.064 402.593 249.674 397.786 253.102C393.346 256.268 387.553 252.872 386.319 247.985C384.891 242.331 387.667 235.993 390 231C380.539 226.523 370.678 222.94 361 219z"/>
<path style="fill:#ffa953; stroke:none;" d="M63 220L64 221L63 220M62 221L63 222L62 221z"/>
<path style="fill:#bfbfbf; stroke:none;" d="M198 221C198.058 222.731 197.862 224.822 199.028 226.277C203.141 231.409 210.935 227.674 209 237C217.234 240.513 228.099 243.579 237 242C234.234 236.273 227.787 225.334 221.816 222.742C218.866 221.462 215.128 222.062 212 221.985C207.303 221.87 202.718 221.013 198 221M288 222C288.125 224.426 287.673 227.587 288.628 229.854C291.746 237.253 300.69 234.478 306 232L306 230C299.938 227.476 294.327 223.823 288 222M283 223C279.477 224.669 275.921 226.743 272 227C264.822 234.254 252.025 237.268 243 242C253.16 246.263 264.947 239.901 274 235.771C280.208 232.938 286.419 231.151 283 223z"/>
<path style="fill:#ffa953; stroke:none;" d="M58 233C62.499 231.734 64.8703 229.091 67 225C62.4756 225.951 59.3898 228.558 58 233z"/>
<path style="fill:#000000; stroke:none;" d="M160 225C158.261 228.05 156.507 230.487 156 234C159.137 231.444 161.05 228.958 162 225L160 225z"/>
<path style="fill:#bfbfbf; stroke:none;" d="M209 242C208.189 246.369 208 250.564 208 255C238.519 260.919 271.903 259.53 301 248.297C305.959 246.383 310.908 243.763 316 242.301C318.773 241.505 322.699 241.521 324.683 239.11C327.232 236.014 327.801 228.888 328 225C313.555 230.466 301.327 239.123 286 242.664C269.739 246.421 250.64 247.494 234 245.829C225.565 244.986 217.557 242.177 209 242z"/>
<path style="fill:#ffa953; stroke:none;" d="M57 226L56 228C57.2628 227.029 57.3919 227.306 57 226z"/>
<path style="fill:#bfbfbf; stroke:none;" d="M195 230C193.085 236.477 194.458 243.339 194 250C197.363 250.625 200.578 250.972 204 251C204.688 246.602 208.002 236.427 204.397 233.009C202.114 230.845 197.925 230.722 195 230z"/>
<path style="fill:#7fffff; stroke:none;" d="M394 233C392.203 236.576 389.695 241.861 390.527 245.981C390.965 248.152 393.025 251.069 395.586 249.824C399.173 248.08 400.852 238.577 402 235L394 233z"/>
<path style="fill:#000000; stroke:none;" d="M368 234C366.459 237.581 365.521 241.137 365 245C367.711 241.897 368.568 237.841 370 234L368 234M362 235C360.902 237.694 360.505 239.156 361 242C362.946 239.832 363.984 237.734 365 235L362 235M375 235C373.501 238.916 372.365 242.814 372 247C375.441 243.528 376.113 239.679 377 235L375 235M381 235C378.491 238.802 377.735 241.584 379 246C381.294 242.78 382.471 238.769 381 235z"/>
<path style="fill:#bfbfbf; stroke:none;" d="M209 259C205.433 267.046 203.203 275.508 201 284C212.503 288.943 225.891 286.778 238.015 286.079C272.954 284.064 308.541 272.894 339 256C338.055 252.088 337.85 243.424 332.776 242.488C327.196 241.458 320.018 245.005 315 247C305.895 250.619 296.395 253.654 287 256.431C263.053 263.508 233.249 265.416 209 259M342 247C342.225 256.572 348.024 258.959 356 262.626C365.847 267.153 375.956 271.141 386 275.207C392.073 277.665 397.525 280.646 404 282C403.998 279.144 404.63 275.202 402.397 272.994C398.614 269.252 390.815 267.712 386 265.529C376.969 261.434 368.02 257.185 359 253.07C353.596 250.605 347.977 247.397 342 247z"/>
<path style="fill:#000000; stroke:none;" d="M142 250C141.804 252.952 140.925 256.316 142.184 259.127C146.541 268.85 163.45 273.787 173 275C173.875 272.091 175.965 268.208 174.553 265.213C172.95 261.811 168.069 260.356 165 258.691C157.356 254.545 151.135 249.032 142 250z"/>
<path style="fill:#7fffff; stroke:none;" d="M145 253L144 257C151.847 264.798 159.999 269.7 171 272L174 265C163.933 262.081 155.583 253.313 145 253z"/>
<path style="fill:#bfbfbf; stroke:none;" d="M193.72 256.031C191.772 257.525 191.069 260.786 190.355 263C188.462 268.872 182.53 278.611 183.502 284.772C184.08 288.43 191.752 289.872 194.412 287.958C196.345 286.566 196.831 283.133 197.448 281C198.793 276.357 199.748 271.535 201.418 267C202.413 264.299 204.342 261.124 204.088 258.149C203.756 254.258 196.144 254.171 193.72 256.031z"/>
<path style="fill:#00ff00; stroke:none;" d="M310 274L311 283C319.731 281.448 326.806 276.052 333.996 271.205C338.543 268.14 342.991 265.707 346 261C339.58 259.622 335.601 262.848 330 265.514C323.554 268.582 316.69 271.569 310 274z"/>
<path style="fill:#000000; stroke:none;" d="M270 277C269.973 274.749 270.173 272.231 268.972 270.211C264.938 263.426 251.006 261.742 245.603 267.653C238.172 275.784 253.372 280.422 259 279.71C262.77 279.233 266.347 277.969 270 277z"/>
<path style="fill:#ffffff; stroke:none;" d="M313 287C313.717 290.34 314.655 296.904 318.299 298.353C322.398 299.984 327.777 295.868 331 293.846C339.212 288.696 347.068 283.629 354.421 277.285C357.74 274.421 360.81 272.358 362 268C358.332 266.63 354.012 264.405 350 264.998C344.553 265.805 340.983 270.323 336.83 273.402C329.73 278.666 321.189 283.668 313 287z"/>
<path style="fill:#7fffff; stroke:none;" d="M254 267C255.865 270.5 257.695 272.92 258 277C262.088 276.382 269.211 273.233 262.851 269.103C260.308 267.451 256.906 267.458 254 267z"/>
<path style="fill:#000000; stroke:none;" d="M233 280C232.463 277.272 232.177 273.679 230.11 271.603C226.228 267.706 213.149 268.28 209.608 272.429C205.677 277.035 212.059 280.639 216.039 280.945C218.342 281.122 220.692 281.001 223 281C226.491 280.999 229.649 280.99 233 280z"/>
<path style="fill:#7fffff; stroke:none;" d="M248 269C248.574 272.698 249.655 274.316 253 276C253.617 271.868 251.616 270.644 248 269z"/>
<path style="fill:#00ff00; stroke:none;" d="M45 305C48.2959 305.481 50.9794 303.386 54 302.078C60.6844 299.182 67.3732 296.332 74 293.309C88.6557 286.622 107.855 282.195 124 282.004C132.651 281.901 147.119 287.929 154 282C147.203 277.517 138.179 272.48 130 271.352C119.232 269.867 107.09 273.322 97 276.857C77.503 283.688 61.5277 292.471 45 305z"/>
<path style="fill:#7fffff; stroke:none;" d="M212 274C215.292 278.569 222.781 277.986 228 278C226.435 270.829 217.673 272.649 212 274z"/>
<path style="fill:#ffffff; stroke:none;" d="M43 313C59.4565 305.184 80.6439 300.309 98.8302 298.873C106.137 298.297 113.674 297.392 121 298.174C124.803 298.58 130.339 301.315 134.05 299.752C138.425 297.909 142.302 292.099 146 289C139.83 282.328 128.113 285.355 120 285.91C99.5468 287.311 81.6828 292.023 63 300.782C56.182 303.978 47.722 306.983 43 313z"/>
<path style="fill:#00ff00; stroke:none;" d="M216 298L216 300C226.688 302.552 237.293 300.804 248 302C247.422 299.753 246.718 297.981 245.446 296C237.607 283.794 225.034 292.537 216 298z"/>
<path style="fill:#ffffff; stroke:none;" d="M199 311C203.428 316.638 209.29 317.16 216 318.246C230.166 320.539 248.225 320.081 262 316C259.84 312.72 257.32 308.018 253.816 306.028C248.992 303.288 241.296 305.624 236 305.461C228.1 305.217 219.863 301.135 212 303.015C207.024 304.204 202.802 307.76 199 311z"/>
<path style="fill:#7f7f7f; stroke:none;" d="M324 398C331.388 396.479 338.748 393.826 346 391.694C349.454 390.679 353.175 390.87 354 387C346.827 388.441 340.026 390.833 333 392.741C329.209 393.77 325.211 393.856 324 398M79 400C82.6959 401.779 86.1665 401.453 90 402.545C98.0236 404.831 105.646 407.772 114 409C113.087 406.174 111.861 404.985 108.981 403.905C102.957 401.647 96.2369 400.661 90 399.105C85.5835 398.003 82.4986 396.533 79 400z"/>
</svg>
